/* XPM */
static char *_e78e858238c4cd9c0a91d00eeba905cFk0OW5eIv84387Zn[] = {
/* columns rows colors chars-per-pixel */
"32 32 30 1 ",
"  c black",
". c #709932",
"X c #386940",
"o c #6FAF32",
"O c #358249",
"+ c #4B994F",
"@ c #5EA157",
"# c #79B066",
"$ c #294D33",
"% c #4F6C25",
"& c #70452C",
"* c #9E6937",
"= c #875435",
"- c #BD9946",
"; c #8BC22D",
": c #5C8466",
"> c #352D38",
", c #A7A4AB",
"< c #86B832",
"1 c #7F7A85",
"2 c #625969",
"3 c #4C464F",
"4 c #261F29",
"5 c #484F52",
"6 c #639BFF",
"7 c #334716",
"8 c #5FCDE4",
"9 c #B4E441",
"0 c #646A6B",
"q c #313436",
/* pixels */
"................................",
"................................",
"...........%XX%..XXX...o........",
"...........OO.+..+O.............",
"..........X++@@O+++@%XXX........",
".......%XOOo@OO@+@o+.++.........",
"......%.++o<o..+.o<oo@+o........",
"......X.++oooooooooooo+@........",
"......O.@.<.o<o<<<oo<o.+@.......",
".......+@..<o.<<<<<<ooo.+@.%....",
".....XO.oooo..o<<<oooooo.+O%....",
"....+O+@@ooo..oooooooooo.@+.....",
"....O+.+O+o<oo<o.o<o..o.+@..%...",
"....%..+@...oooo.oooo..OO@.X....",
"......o...+..ooooooooo+@@@+O....",
".....+@@@++@.o..oo.oo@+o.@OOX...",
"....XOOOO+o+@.+@oo..++o..+OXX...",
"....X+.o++.o++o+o@OOO+..+O%.X...",
".....O+..++.++o.@+O@@@++O+.+X...",
".....OO@.@O+++..+OO@o@O+O++O%...",
"....OOXO@@OOO+.+OOXO.+O.+OXX....",
"....+O.XOOOXXX+OOOOOXOOXXOOX....",
"....%X+.OOO%.%OOXOOO+OO+OOOX....",
"....XXO.+XX...XXXOOX.+X.+OX5o...",
"..%%%X5OOXOOOOX...XXOOOXOOX%....",
"..%%%%XX5XOOXX5++OX5XXO55X%%....",
"..%%%%%X55XX555XXXX555X55%%.....",
"..%%%%%%X555555555555555X%......",
"....%%%%%%%%%%%%%%%%%%%%%.......",
"......%%%%%%%%%%%%%%%%%%........",
"................................",
"................................"
};
