/* XPM */
static char *e26e64d83ba146b4e87fd9025714639bk867fAhJ4orifrx2[] = {
/* columns rows colors chars-per-pixel */
"32 32 14 1 ",
"  c #911033",
". c #A4182A",
"X c #C8444E",
"o c #628E1F",
"O c #699329",
"+ c #709932",
"@ c #64AD26",
"# c #68A72A",
"$ c #1C8473",
"% c #A7C533",
"& c #13A2A1",
"* c #61B6D2",
"= c #DCDC8D",
"- c #E1EFBF",
/* pixels */
"++++++++++++++++++++++++++++++++",
"++++++++++++++++++++++++++++++++",
"++++++++++++++  ......++++++++++",
"++++++++++++@@@@  ...X.+++++++++",
"+++++++++++@%@@@@& ...X.++++++++",
"++++++++++@%@@@@&&& ...X.+++++++",
"+++++++++@%@@@@&&&&& ..X#+++++++",
"+++++++++@%@@@&&*&&& ..###++++++",
"++++++++.@@@@$$$&*&& .#%##++++++",
"++++++++..@@o*&&$*&& ##%##++++++",
"+++++++.X..@o&&&&&&&O##%##++++++",
"+++++++.X... $&&&&&O##%##+++++++",
"+++++++.X.... $&&$$&#####+++++++",
"+++++++..X.... $$&&&&###++++++++",
"++++++++..X....&&&&&&&##++++++++",
"++++++++...X..&&&&&*&&&+++++++++",
"+++++++++....&*****&&&++++++++++",
"++++++++++..&&&&&&&&&+++++++++++",
"+++++++++++.&&&&&&&+++++++++++++",
"++++++++++++-=++++++++++++++++++",
"+++++++++++--+++++++++++++++++++",
"+++++++++++--+++++++++++++++++++",
"+++++++++++-=+++++++++++++++++++",
"++++++++++--++++++++++++++++++++",
"++++++++++--++++++++++++++++++++",
"++++++++++-=++++++++++++++++++++",
"+++++++++--+++++++++++++++++++++",
"+++++++++--+++++++++++++++++++++",
"+++++++++-=+++++++++++++++++++++",
"++++++++--++++++++++++++++++++++",
"++++++++-=++++++++++++++++++++++",
"++++++++++++++++++++++++++++++++"
};
