/* XPM */
static char *_c629c684c8a414aab645483bb2003e2gPwFiMyZ0lF5j0jO[] = {
/* columns rows colors chars-per-pixel */
"32 32 237 2 ",
"   c #503347",
".  c #533849",
"X  c #5F4A4F",
"o  c #64474C",
"O  c #45527E",
"+  c #5F5377",
"@  c #5D7A64",
"#  c #4F6573",
"$  c #6F9A2F",
"%  c #70992F",
"&  c #72992F",
"*  c #6F9830",
"=  c #6F9A31",
"-  c #6F9933",
";  c #709931",
":  c #729831",
">  c #719A30",
",  c #709933",
"<  c #729833",
"1  c #719A32",
"2  c #709B32",
"3  c #719A34",
"4  c #70973A",
"5  c #749838",
"6  c #74993A",
"7  c #71983D",
"8  c #719941",
"9  c #769C49",
"0  c #648556",
"q  c #759D56",
"w  c #7E9F50",
"e  c #698964",
"r  c #6F8B7C",
"t  c #6F8E7E",
"y  c #719070",
"u  c #898C57",
"i  c #8C8C5A",
"p  c #8D955A",
"a  c #95945E",
"s  c #84A55E",
"d  c #948764",
"f  c #958764",
"g  c #969461",
"h  c #989464",
"j  c #9C9B6B",
"k  c #A19269",
"l  c #A3916B",
"z  c #A0926B",
"x  c #A1926B",
"c  c #B58E7F",
"v  c #8BA969",
"b  c #8BAB6C",
"n  c #91AD73",
"m  c #3D4583",
"M  c #3E4782",
"N  c #3D4784",
"B  c #3D4785",
"V  c #3E4684",
"C  c #3E4685",
"Z  c #3F4785",
"A  c #404682",
"S  c #404684",
"D  c #414B88",
"F  c #424A88",
"G  c #464F8A",
"H  c #494F8B",
"J  c #4A538E",
"K  c #4D5593",
"L  c #515793",
"P  c #515795",
"I  c #525695",
"U  c #535995",
"Y  c #575D9B",
"T  c #585D9D",
"R  c #585E9C",
"E  c #69628B",
"W  c #746B88",
"Q  c #607288",
"!  c #647593",
"~  c #6A7B97",
"^  c #6E739B",
"/  c #5D63A1",
"(  c #6167A5",
")  c #6268A6",
"_  c #656BA7",
"`  c #656BA9",
"'  c #656AAA",
"]  c #676BAA",
"[  c #646CAA",
"{  c #666CAA",
"}  c #6B73B2",
"|  c #6C76B4",
" . c #717AB3",
".. c #7078B6",
"X. c #7078B7",
"o. c #7179B8",
"O. c #AE4B84",
"+. c #977782",
"@. c #B16D82",
"#. c #B46C84",
"$. c #C74F97",
"%. c #C55295",
"&. c #C85797",
"*. c #C95898",
"=. c #CD619B",
"-. c #CD629A",
";. c #D0659D",
":. c #D26F9E",
">. c #D176A2",
",. c #D776A1",
"<. c #D877A0",
"1. c #D877A2",
"2. c #D37BA5",
"3. c #D47FA6",
"4. c #D57FA6",
"5. c #D67EA8",
"6. c #728E80",
"7. c #718792",
"8. c #718794",
"9. c #708799",
"0. c #70849C",
"q. c #7C9695",
"w. c #7182A0",
"e. c #898C9F",
"r. c #9B999A",
"t. c #AA8C8A",
"y. c #AB8C8A",
"u. c #BC8D85",
"i. c #A29582",
"p. c #9CB482",
"a. c #86A192",
"s. c #92A69D",
"d. c #AAA480",
"f. c #A2AD82",
"g. c #A3BA8E",
"h. c #A8BD96",
"j. c #9789BC",
"k. c #A48FBA",
"l. c #A393B0",
"z. c #A693B1",
"x. c #B397BD",
"c. c #B398BB",
"v. c #A0A5A1",
"b. c #B5A1A0",
"n. c #B3BBAE",
"m. c #C68B8F",
"M. c #C78C90",
"N. c #C88991",
"B. c #CA8991",
"V. c #C88992",
"C. c #C98A92",
"Z. c #CD8996",
"A. c #D18899",
"S. c #CD999B",
"D. c #D280A6",
"F. c #D885A1",
"G. c #DE83A4",
"H. c #DF84A5",
"J. c #DE85A5",
"K. c #DF88A8",
"L. c #C999A7",
"P. c #DB94A4",
"I. c #D896A4",
"U. c #D394B3",
"Y. c #DF99B3",
"T. c #E183A5",
"R. c #E085A6",
"E. c #E18BA8",
"W. c #E18CA9",
"Q. c #E18CAB",
"!. c #E191AA",
"~. c #E090AB",
"^. c #E191AC",
"/. c #E698B0",
"(. c #E19BB5",
"). c #E09FB7",
"_. c #CEADA4",
"`. c #CFA0AA",
"'. c #D2A1B7",
"]. c #E6A2B7",
"[. c #E3A4B5",
"{. c #E1A0B8",
"}. c #E2A1B9",
"|. c #E7A3B8",
" X c #E5A4B8",
".X c #E3AEBE",
"XX c #E9ACBC",
"oX c #E9B0BF",
"OX c #ACC19A",
"+X c #ACC09B",
"@X c #B8C8AB",
"#X c #BFCFB4",
"$X c #DAC1A2",
"%X c #C0CEB5",
"&X c #CFCDBE",
"*X c #D2C6BA",
"=X c #D4C7BE",
"-X c #EEC4AE",
";X c #808BC3",
":X c #858CC3",
">X c #858BC7",
",X c #838CC7",
"<X c #8F99CE",
"1X c #949DD4",
"2X c #99A0D7",
"3X c #99A2D9",
"4X c #A8ADCD",
"5X c #A0AFD0",
"6X c #A1A8DF",
"7X c #AEB8ED",
"8X c #E7B4C5",
"9X c #EAB4C2",
"0X c #ECB6C3",
"qX c #D2D3CE",
"wX c #CFD3DC",
"eX c #D3D8D2",
"rX c #DAD9DF",
"tX c #E3C4CC",
"yX c #ECCCD1",
"uX c #E4D3DB",
"iX c #EFD6D9",
"pX c #D5E0D0",
"aX c #D4E1D0",
"sX c #C1C9ED",
"dX c #E8DDE1",
"fX c #EFECE7",
"gX c #F0E6E4",
"hX c #F0EBE7",
"jX c #ECF1EB",
"kX c #ECF3EC",
"lX c #EEF3EC",
"zX c #EEF3ED",
"xX c #EFF4EE",
"cX c #F1F3EE",
"vX c #F0F5EE",
"bX c #F0F5EF",
"nX c #F3F5F0",
/* pixels */
"; ; ; ; ; ; ; ; ; ; ; ; y.y.= ; ; ; ; ; % ; ; ; ; ; ; ; ; ; ; ; ",
"; ; ; ; ; ; ; ; ; ; ; = S.j $ ; ; ; ; ; ; ; % ; ; ; ; ; ; ; ; ; ",
"; ; ; ; ; ; ; ; = ; ; ; a u.p ; = ; ; ; ; % ; ; ; ; ; ; ; ; ; ; ",
"; ; ; ; ; ; ; ; ; ; ; ; ; V.Z.m.M.m.m.m.m.a ; ; ; ; ; ; ; ; ; ; ",
"; ; ; ; ; ; ; ; ; ; ; ; c F.H.H.H.H.R.H.H.A.g ; ; ; ; ; ; ; ; ; ",
"; ; ; ; ; ; ; ; = ; ; ; V.|.!. X^.H.T.].XX^.l ; ; ; ; ; ; ; ; ; ",
"; ; ; ; ; ; ; ; ; ; ; u.[./.:.H.K.G.H.W.!. XP.h ; ; ; ; ; ; ; ; ",
"; ; ; ; ; ; ; ; ; ; ; V.W.:.Y.2.<.H.H.H.H.E.K.l ; ; ; ; ; ; ; ; ",
"% ; ; ; ; ; ; ; ; ; ; V.H.=.}.2.*.*.&.(.3.<.H.l ; ; ; ; ; ; ; ; ",
"; ; ; ; ; ; ; = = ; ; V.H. X9XoX>.$.$.).D.,.H.l ; ; ; ; ; ; ; ; ",
"; ; ; ; ; ; = @.u ; ; V.;.}.+.qXfXfXfXr.L.5.<.l ; ; ; ; ; ; ; ; ",
"; ; ; ; = ; #.%.i 3 ; V.=.-Xi.eXbXnXbXv.$XP.,.l ; ; ; ; ; ; ; ; ",
"; ; ; ; ; ; 3 6 6 aXzXU.}.gXzXxXbXbXbXzXxXyX3.f ; ; ; ; ; ; ; ; ",
"; ; ; ; ; ; ; ; aXsX7XW O.uXjXzXzXcXzXjXjX'.f % ; ; ; ; ; ; ; ; ",
"; ; ; ; % % ; ; 5X>XX.+ .   X o `.0Xd.w 9 4 ; ; ; ; ; ; ; ; ; ; ",
"; % ; % ; ; ; ; 0.X.o.6X,XX.wXtX.X.X8XdX4Xt 7 ; ; ; ; ; ; ; ; ; ",
"; ; ; ; ; ; ; ; ; w.X.X.| } K V M V <X;X3X:Xr 8 ; ; ; ; ; ; ; ; ",
"; ; ; ; ; ; ; ; = 9.X.o.L V A V V V V V ` E ^ y = ; ; = = ; ; = ",
"; ; ; ; ; ; ; ; ; ; w.X.P V H D V G D V _ 2Xa.= ; ; ; ; ; ; ; ; ",
"; ; ; ; ; ; ; ; ; ; 8. .P V ( T K ) K V ` X.q.q ; ; ; ; ; ; ; ; ",
"; ; ; ; ; ; ; ; ; = ; w.P V V [ X.U V V ` X.1Xa.; ; ; = ; ; ; ; ",
"; ; ; ; ; ; ; ; ; ; ; ~ J V V / [ K V V ` X.X.s.s ; ; ; ; ; ; ; ",
"; ; ; ; ; ; ; ; ; ; ; # M V V V V S V V [ j.k.rXOX= = ; ; ; ; ; ",
"; ; ; ; ; ; ; ; ; ; ; @ O V V V V V V V ! b._.&Xp.; ; ; ; ; ; ; ",
"; ; ; ; ; ; ; ; ; ; ; ; # V V V V V M V 0 ; ; ; ; ; ; ; ; ; ; ; ",
"; ; ; ; ; ; ; ; % ; ; ; Q T T T Y T T T e ; ; ; ; ; ; ; ; ; ; ; ",
"; ; ; ; ; ; ; ; ; ; ; ; 6.z.x.e.7.7.l.c.n.b % ; ; ; ; ; ; ; ; ; ",
"; ; ; ; ; ; ; ; ; ; ; ; = =XiXf.; ; *XiXhXh.; ; ; ; ; ; ; ; ; ; ",
"; ; ; ; ; ; ; ; ; % ; ; ; aXbXg.= ; OX#X%Xn = ; ; ; ; ; ; ; ; ; ",
"; ; ; ; ; ; ; ; ; ; ; ; ; aXbXg.; ; ; ; ; ; ; ; ; ; ; ; ; ; ; ; ",
"; ; ; ; ; ; ; ; ; ; ; ; ; h.@Xv ; ; ; ; ; ; ; ; ; ; ; ; ; ; ; ; ",
"; ; ; ; ; ; ; ; ; ; ; ; ; = ; ; ; ; ; ; ; ; ; ; ; ; ; ; ; ; ; ; "
};
