/* XPM */
static char *fa1b0bf35be54dd29d7182d236841022iyfCwzNFRRzQWKGj[] = {
/* columns rows colors chars-per-pixel */
"32 32 183 2 ",
"   c #455E24",
".  c #4C6826",
"X  c #526F28",
"o  c #5A7B2B",
"O  c #513546",
"+  c #523849",
"@  c #5F4A50",
"#  c #63474C",
"$  c #45527E",
"%  c #5F5478",
"&  c #5C7A64",
"*  c #4F6574",
"=  c #658A2E",
"-  c #709932",
";  c #719A35",
":  c #749738",
">  c #70983A",
",  c #70983C",
"<  c #749A3C",
"1  c #709840",
"2  c #759B4B",
"3  c #638557",
"4  c #769C56",
"5  c #7E9F50",
"6  c #698964",
"7  c #70906F",
"8  c #6F8B7B",
"9  c #8A8C57",
"0  c #81825E",
"q  c #8C8B5A",
"w  c #8E9558",
"e  c #95945F",
"r  c #84A55E",
"t  c #948763",
"y  c #958764",
"u  c #969460",
"i  c #999463",
"p  c #9C996A",
"a  c #A1926B",
"s  c #A2926C",
"d  c #8AA969",
"f  c #8CAA6C",
"g  c #91AD73",
"h  c #3E4683",
"j  c #424A87",
"k  c #474F8B",
"l  c #484F8B",
"z  c #4B538F",
"x  c #4D5592",
"c  c #505793",
"v  c #505794",
"b  c #525995",
"n  c #575E9B",
"m  c #5F7288",
"M  c #69638C",
"N  c #746B89",
"B  c #647593",
"V  c #697B96",
"C  c #6D739A",
"Z  c #5C63A0",
"A  c #5F66A3",
"S  c #6168A5",
"D  c #646BA8",
"F  c #656CAA",
"G  c #6C73B2",
"H  c #6D74B3",
"J  c #717AB2",
"K  c #7178B7",
"L  c #AE4A84",
"P  c #977882",
"I  c #B16E82",
"U  c #B36C84",
"Y  c #C64F97",
"T  c #C55396",
"R  c #C95898",
"E  c #CD629B",
"W  c #CF659C",
"Q  c #D26F9F",
"!  c #D776A1",
"~  c #D176A4",
"^  c #D877A1",
"/  c #D37AA5",
"(  c #D37FA6",
")  c #D57EA7",
"_  c #D878A1",
"`  c #708D80",
"'  c #718792",
"]  c #718697",
"[  c #70849C",
"{  c #7C9595",
"}  c #7182A1",
"|  c #898C9F",
" . c #9C999A",
".. c #AA8D8A",
"X. c #B68E80",
"o. c #BB8D84",
"O. c #A29582",
"+. c #9BB482",
"@. c #86A191",
"#. c #93A69D",
"$. c #AAA480",
"%. c #A2AE82",
"&. c #A3BA8F",
"*. c #A8BD95",
"=. c #9688BA",
"-. c #A48FBB",
";. c #A392B0",
":. c #A593B2",
">. c #B497BC",
",. c #A1A5A1",
"<. c #B5A1A1",
"1. c #B5BAAF",
"2. c #C68B8F",
"3. c #C88A90",
"4. c #CE8996",
"5. c #D18898",
"6. c #CD999B",
"7. c #D986A0",
"8. c #DF84A5",
"9. c #C999A7",
"0. c #CF9FAA",
"q. c #DA94A3",
"w. c #D896A5",
"e. c #D195B3",
"r. c #DF99B3",
"t. c #E088A7",
"y. c #E18BA9",
"u. c #E18CA9",
"i. c #E291AC",
"p. c #E499B1",
"a. c #E19BB4",
"s. c #E19FB7",
"d. c #CDADA4",
"f. c #D3A1B7",
"g. c #E1A0B7",
"h. c #E6A2B6",
"j. c #E2A4B4",
"k. c #E2A1B8",
"l. c #E6A4B8",
"z. c #E3AFBE",
"x. c #E9ACBC",
"c. c #ACC09A",
"v. c #B8C9AB",
"b. c #BFCFB4",
"n. c #DAC2A2",
"m. c #CFCDBD",
"M. c #D1C6B9",
"N. c #D4C7BD",
"B. c #EFC4AF",
"V. c #828AC3",
"C. c #858BC3",
"Z. c #848BC6",
"A. c #848CC7",
"S. c #9099CD",
"D. c #959DD5",
"F. c #98A0D7",
"G. c #99A2D9",
"H. c #9FA7DE",
"J. c #A8ADCD",
"K. c #A0AFD0",
"L. c #AFB8EC",
"P. c #E6B4C5",
"I. c #E9B0C0",
"U. c #EBB4C2",
"Y. c #ECB6C3",
"T. c #D2D2CF",
"R. c #CED3DC",
"E. c #D3D8D3",
"W. c #DAD9DF",
"Q. c #E4C4CC",
"!. c #ECCCD1",
"~. c #E2D4D8",
"^. c #EED6D9",
"/. c #D6E0D1",
"(. c #C1C9ED",
"). c #E8DEE1",
"_. c #EFE5E2",
"`. c #EFECE8",
"'. c #ECF1EB",
"]. c #EEF3ED",
"[. c #EFF4EE",
"{. c #F0F3EE",
"}. c #F0F5EF",
/* pixels */
"X o o o o o o o o o o o ..0 o o o o o o o o o o o o o o o o o o ",
"= - - - - - - - - - - - 6.p - - - - - - - - - - - - - - - - - - ",
"= - - - - - - - - - - - e o.w - - - - - - - - - - - - - - - - - ",
"= - - - - - - - - - - - - 3.4.2.2.2.2.2.2.e - - - - - - - - - - ",
"= - - - - - - - - - - - X.7.8.8.8.8.8.8.8.5.u - - - - - - - - - ",
"= - - - - - - - - - - - 3.h.i.h.i.8.8.h.x.i.a - - - - - - - - - ",
"= - - - - - - - - - - o.j.p.Q 8.t.8.8.u.i.l.w.i - - - - - - - - ",
"= - - - - - - - - - - 3.u.Q r./ _ 8.8.8.8.y.t.s - - - - - - - - ",
"= - - - - - - - - - - 3.8.E k./ R R R a.) _ 8.s - - - - - - - - ",
"= - - - - - - - - - - 3.8.l.U.I.~ Y Y s.( ! 8.s - - - - - - - - ",
"= - - - - - - I 9 - - 3.W k.P T.`.`.`. .9.) ^ s - - - - - - - - ",
"= - - - - - U T q ; ; 3.E B.O.E.}.}.}.,.n.q.! s - - - - - - - - ",
"= - - - - - ; : < /.].e.g._.].[.}.}.}.].[.!.( y - - - - - - - - ",
"= - - - - - - - /.(.L.N L ~.'.'.].{.].'.'.f.t - - - - - - - - - ",
"= - - - - - - - K.Z.K % + O @ # 0.Y.$.5 2 > - - - - - - - - - - ",
"= - - - - - - - [ K K H.A.K R.Q.z.z.P.).J.` , - - - - - - - - - ",
"= - - - - - - - - } K K H G x h h h S.V.G.C.8 1 - - - - - - - - ",
"= - - - - - - - - ] K K c h h h h h h h D M C 7 - - - - - - - - ",
"= - - - - - - - - - } K v h l j h k j h D F.@.- - - - - - - - - ",
"= - - - - - - - - - ' J v h A n x S x h D K { 4 - - - - - - - - ",
"= - - - - - - - - - - } v h h F K b h h D K D.@.- - - - - - - - ",
"= - - - - - - - - - - V z h h Z F x h h D K K #.r - - - - - - - ",
"= - - - - - - - - - - * h h h h h h h h D =.-.W.c.- - - - - - - ",
"= - - - - - - - - - - & $ h h h h h h h B <.d.m.+.- - - - - - - ",
"= - - - - - - - - - - - * h h h h h h h 3 - - - - - - - - - - - ",
"= - - - - - - - - - - - m n n n n n n n 6 - - - - - - - - - - - ",
"= - - - - - - - - - - - ` :.>.| ' ' ;.>.1.f - - - - - - - - - - ",
"= - - - - - - - - - - - - N.^.%.- - M.^.`.*.- - - - - - - - - - ",
"= - - - - - - - - - - - - /.}.&.- - c.b.b.g - - - - - - - - - - ",
"= - - - - - - - - - - - - /.}.&.- - - - - - - - - - - - - - - - ",
"= - - - - - - - - - - - - *.v.d - - - - - - - - - - - - - - - - ",
"  . . . . . . . . . . . . . . . . . . . . . . . . . . . . . . . "
};
