/* XPM */
static char *bd3402d302ac4345ff7b72516795fcf5PEms6PDbKb7ZHrvN[] = {
/* columns rows colors chars-per-pixel */
"32 32 113 2 ",
"   c #3A3A3D",
".  c #495434",
"X  c #4C5739",
"o  c #4D5839",
"O  c #505C3D",
"+  c #556538",
"@  c #5C7235",
"#  c #5E723D",
"$  c #627A3A",
"%  c #3F3F43",
"&  c #414145",
"*  c #494B44",
"=  c #45464A",
"-  c #46484C",
";  c #4B4C4D",
":  c #4D4E51",
">  c #4E5055",
",  c #535254",
"<  c #555953",
"1  c #535559",
"2  c #56595D",
"3  c #5A5B5E",
"4  c #6D575A",
"5  c #566243",
"6  c #5B6B43",
"7  c #5C6A49",
"8  c #5E6353",
"9  c #5D635E",
"0  c #736848",
"q  c #637548",
"w  c #6C745F",
"e  c #6D7A59",
"r  c #717F5B",
"t  c #4E5664",
"y  c #555A61",
"u  c #5A5D62",
"i  c #535B6A",
"p  c #5E6266",
"a  c #5E636C",
"s  c #5A6171",
"d  c #5F6876",
"f  c #5C697C",
"g  c #636467",
"h  c #636C60",
"j  c #62666B",
"k  c #65696D",
"l  c #6A6C6E",
"z  c #6F7564",
"x  c #71716E",
"c  c #636973",
"v  c #6A6D72",
"b  c #62697A",
"n  c #6D7175",
"m  c #6D737B",
"M  c #727275",
"N  c #797876",
"B  c #73757A",
"V  c #76787B",
"C  c #78787B",
"Z  c #865A5D",
"A  c #8B6B4A",
"S  c #8B7C5D",
"D  c #997454",
"F  c #956569",
"G  c #876D72",
"H  c #807F7E",
"J  c #678534",
"K  c #6C8B36",
"L  c #69853B",
"P  c #6E8C3C",
"I  c #719337",
"U  c #759B35",
"Y  c #7A9C36",
"T  c #779D38",
"R  c #78A034",
"E  c #6B8246",
"W  c #6F8B42",
"Q  c #738F43",
"!  c #738A4D",
"~  c #759341",
"^  c #738455",
"/  c #768E54",
"(  c #788E53",
")  c #7B9256",
"_  c #758465",
"`  c #7E8C6D",
"'  c #819264",
"]  c #5E6B83",
"[  c #616E8A",
"{  c #6B768C",
"}  c #757881",
"|  c #737C8D",
" . c #7A7E8D",
".. c #6B7B9D",
"X. c #727D95",
"o. c #7F8083",
"O. c #7D808B",
"+. c #7C8090",
"@. c #7583A5",
"#. c #7789AD",
"$. c #7E90B4",
"%. c #818183",
"&. c #838486",
"*. c #80899E",
"=. c #8B95AF",
"-. c #8492B0",
";. c #8494B7",
":. c #8B95B2",
">. c #8596BA",
",. c #8998BC",
"<. c #8E9DBE",
"1. c #949EBA",
"2. c #95A3C6",
/* pixels */
"R R R R R R R R R R R R R R R R R R R R R R R R R R R R R R R R ",
"R R R R R R R R R R R R R R R R R R R R R R R R R R R R R R R R ",
"R R R R R R R R R R R R R R R R R R R R R R R R R R R R R R R R ",
"R R R R R R R R R R R R R R R R R R R R R R R R R R R R R R R R ",
"R R R R R R R R R R R R R R R R R R R R R R R R R R R R R R R R ",
"R R R R R R R R R R R R R R R R R R R R R R R R R R R R R R R R ",
"R R R R R R R R R R R R R R R R R R R R R R R R R R R R R R R R ",
"R R R R R R R R R R R R R R R R R R R R R R R R R R R R R R R R ",
"R R R R R R R R R R R R R R R R R R R R R R R R R R R R R R R R ",
"R R T Q ! ( ( ( ( ( ( ( ( ( ( ) ) ) ) ) ) ) ) / E P R R R R R R ",
"R R T e l V C C C C C C C C C C o.O. . .+.+.O.} u q U T R R R R ",
"R R T _ n g v V V V V V V V l j B | @.:.1.1.=.*.m h 7 P R R R R ",
"R R T _ n p k v n n n n n n p 2 n | @.,.2.2.<.-.X.c < P R R R R ",
"R R T _ m v g u p p p p p p 2 2 v { ..#.$.$.>.;...b 9 W R R R R ",
"R R Y S G M v k k k g g g g p g n m f ] [ { X.X.] d l ` ' ^ ~ R ",
"R R Y D F M n n v v v k k k k v n k y t i s b b i a n &.&.M ! R ",
"R R Y A Z l n B M B B v g g k k k u > u a k k k y u p l V %.) R ",
"R R U 0 4 j g g g j k g p u p g k 2 = : 1 1 2 y 1 , 1 1 u l ! R ",
"R R U 7 1 u 1 , , , 1 3 2 : 2 g g 1         - > - ; , ; ; ; $ R ",
"R R U 5 = & 3 M H l , : = % & = = &         & - : g %.M w L I R ",
"R R U # O . 8 x N z 7 5 O o X X X X X X X X O 5 7 w C M r T R R ",
"R R T U U U # *   + U U U U U U U U U U U U U U U @   * 6 U R R ",
"R R R R R R K $ @ J R R R R R R R R R R R R R R R K @ $ L T R R ",
"R R R R R R R R R R R R R R R R R R R R R R R R R R R R R R R R ",
"R R R R R R R R R R R R R R R R R R R R R R R R R R R R R R R R ",
"R R R R R R R R R R R R R R R R R R R R R R R R R R R R R R R R ",
"R R R R R R R R R R R R R R R R R R R R R R R R R R R R R R R R ",
"R R R R R R R R R R R R R R R R R R R R R R R R R R R R R R R R ",
"R R R R R R R R R R R R R R R R R R R R R R R R R R R R R R R R ",
"R R R R R R R R R R R R R R R R R R R R R R R R R R R R R R R R ",
"R R R R R R R R R R R R R R R R R R R R R R R R R R R R R R R R ",
"R R R R R R R R R R R R R R R R R R R R R R R R R R R R R R R R "
};
