/* XPM */
static char *_7e3960728c948078054a406f080270dTzYZcDFaILHWt4Ci[] = {
/* columns rows colors chars-per-pixel */
"20 20 69 1 ",
"  c #333134",
". c #363534",
"X c #39373C",
"o c #393B3F",
"O c #3A3C40",
"+ c #434246",
"@ c #4A4E43",
"# c #46484B",
"$ c #4A494D",
"% c #4A4C4F",
"& c #4F4D4E",
"* c #4B4E52",
"= c #4E5050",
"- c #4E5154",
"; c #545357",
": c #545654",
"> c #515358",
", c #53575A",
"< c #54575A",
"1 c #56595D",
"2 c #595C5F",
"3 c #475165",
"4 c #4F5967",
"5 c #555D65",
"6 c #5A5D61",
"7 c #5D6163",
"8 c #5E6166",
"9 c #5A6174",
"0 c #606368",
"q c #62676B",
"w c #64666B",
"e c #63666D",
"r c #666A6F",
"t c #686869",
"y c #6D6C6C",
"u c #686C71",
"i c #6C7076",
"p c #6F7479",
"a c #717278",
"s c #72767A",
"d c #70777C",
"f c #75787C",
"g c #79797B",
"h c #7B7B7D",
"j c #8E4F51",
"k c #807F7E",
"l c #AE6468",
"z c #78A034",
"x c #686F81",
"c c #757B84",
"v c #787980",
"b c #7A7D81",
"n c #797D8A",
"m c #7C7F89",
"M c #7A7D8C",
"N c #667598",
"B c #67789A",
"V c #7484AB",
"C c #7C8FB3",
"Z c #7C8FB4",
"A c #808081",
"S c #828386",
"D c #86888A",
"F c #959699",
"G c #9C9B99",
"H c #9B9B9D",
"J c #8997B6",
"K c #8B9CC0",
"L c #A1ADCF",
/* pixels */
"zzzzzzzzzzzzzzzzzzzz",
"zzzzzzzzzzzzzzzzzzzz",
"zzzzzzzzzzzzzzzzzzzz",
"zzzzzzzzzzzzzzzzzzzz",
"zzzzzzzzzzzzzzzzzzzz",
"zzzzzzzzzzzzzzzzzzzz",
"zzthggggghSnMMm:zzzz",
"zzb,fffff<dVLLJc=zzz",
"zzsi68888-sBZCKN7zzz",
"zzlpiurrrus539x4sFyz",
"zzjrfavqqqq%eeq12wDz",
"zz-0&&;8*qroOO>$&##z",
"zz+ kG:+XXXXXX+:HAzz",
"zzzz@.zzzzzzzzzz.@zz",
"zzzzzzzzzzzzzzzzzzzz",
"zzzzzzzzzzzzzzzzzzzz",
"zzzzzzzzzzzzzzzzzzzz",
"zzzzzzzzzzzzzzzzzzzz",
"zzzzzzzzzzzzzzzzzzzz",
"zzzzzzzzzzzzzzzzzzzz"
};
